<svg width="508" height="508" viewBox="0 0 508 508" fill="none" xmlns="http://www.w3.org/2000/svg">
<rect width="508" height="508" rx="100" fill="url(#paint0_linear_0_1)"/>
<path d="M222.5 61C226.021 61 270.687 81.6595 307 125.604V399.703C280.086 431.786 246.921 447 222.5 447C174 447 91 387 91 254C91 120.5 216.5 60.9999 222.5 61Z" fill="url(#paint1_linear_0_1)" fill-opacity="0.63"/>
<path d="M301 60.9219C301.766 61.2521 302.673 61.6614 303.715 62.1592C307.555 63.993 312.893 66.8369 319.226 70.7324C331.896 78.525 348.289 90.361 364.484 106.411C396.855 138.494 428 186.926 428 253.554C428 389.414 344.697 446.467 301 446.922V60.9219Z" fill="url(#paint2_linear_0_1)" fill-opacity="0.23"/>
<path d="M302.98 56.3307C301.66 59.3915 300.34 62.4523 299.02 65.5131C299.864 65.871 300.716 66.2554 301.568 66.6557C306.668 69.0682 311.73 71.8988 316.668 74.8913C323.184 78.849 329.515 83.1483 335.646 87.7212C344.661 94.4493 353.24 101.774 361.277 109.646C400.097 146.964 424.704 199.316 424.379 253.554C426.774 333.804 386.679 432.579 300.977 444.733L303.189 446.922C302.542 332.953 301.896 218.984 301.25 105.015C301.167 90.317 301.083 75.6195 301 60.9219C300.917 75.6195 300.833 90.317 300.75 105.015C300.104 218.984 299.458 332.953 298.811 446.922L298.824 449.146L301.023 449.11C391.805 437.092 432.909 335.556 431.621 253.554C432.649 197.432 407.515 142.261 367.69 103.176C359.446 94.9159 350.644 87.2256 341.371 80.1399C335.063 75.3231 328.543 70.7852 321.784 66.5735C316.646 63.3826 311.417 60.3698 305.863 57.6626C304.919 57.2056 303.963 56.7609 302.98 56.3307ZM299.02 65.5131L302.98 56.3307L300.971 55.4776L301 60.9219L299.02 65.5131Z" fill="black"/>
<g filter="url(#filter0_i_0_1)">
<path d="M222.5 61L222.5 51L222.5 61ZM307 125.604H317C317 123.279 316.19 121.027 314.709 119.235L307 125.604ZM307 399.703L314.661 406.13C316.172 404.329 317 402.054 317 399.703H307ZM306.929 354L299.858 361.071L300.209 361.405L306.929 354ZM307 60.9219L311.124 51.8118L297 45.4181V60.9219H307ZM309.587 62.1592L305.105 71.0988L305.105 71.0988L309.587 62.1592ZM324.365 70.7324L318.942 79.1339V79.1339L324.365 70.7324ZM367.484 106.411L374.694 99.4808V99.4808L367.484 106.411ZM428 253.554H438V253.554H428ZM307 446.922H297V457.032L307.109 456.921L307 446.922ZM222.5 61L222.5 71C221.063 71 220.152 70.6359 220.703 70.8048C220.879 70.8585 221.28 70.9955 221.943 71.2602C223.248 71.7814 225.163 72.6361 227.612 73.86C232.491 76.2982 239.193 80.052 246.944 85.1686C262.463 95.413 281.903 110.931 299.291 131.974L307 125.604L314.709 119.235C295.784 96.3327 274.734 79.5488 257.962 68.4772C249.567 62.9358 242.173 58.7782 236.552 55.9694C233.751 54.5699 231.315 53.4672 229.362 52.6869C228.395 52.3008 227.441 51.9511 226.557 51.6806C226.05 51.5255 224.377 51 222.5 51L222.5 61ZM307 125.604H297V399.703H307H317V125.604H307ZM307 399.703L299.339 393.276C273.806 423.712 243.243 437 222.5 437V447V457C250.598 457 286.365 439.86 314.661 406.13L307 399.703ZM222.5 447V437C181.007 437 101 383.088 101 254H91H81C81 390.912 166.993 457 222.5 457V447ZM91 254H101C101 190.689 130.68 144.859 161.508 114.571C176.933 99.4157 192.548 88.2632 204.616 80.9282C210.649 77.2614 215.732 74.5867 219.39 72.8633C221.229 71.9965 222.625 71.4094 223.546 71.0639C224.015 70.8879 224.257 70.8141 224.31 70.799C224.653 70.7023 223.805 71 222.5 71L222.5 61L222.5 51C220.82 51 219.364 51.4139 218.879 51.5505C218.106 51.7687 217.302 52.0453 216.523 52.3377C214.946 52.9289 213.031 53.7505 210.864 54.7714C206.51 56.8234 200.805 59.8401 194.228 63.8374C181.077 71.8305 164.192 83.8968 147.492 100.304C114.07 133.141 81 183.811 81 254H91ZM112.929 362.929L120 370L311 179L303.929 171.929L296.858 164.858L105.858 355.858L112.929 362.929ZM306.929 354L314 346.929L124.071 157L117 164.071L109.929 171.142L299.858 361.071L306.929 354ZM243.536 239.464L236.464 246.536L297.464 307.536L304.536 300.464L311.607 293.393L250.607 232.393L243.536 239.464ZM271.536 213.464L264.464 220.536L297.464 253.536L304.536 246.464L311.607 239.393L278.607 206.393L271.536 213.464ZM193.071 388.071L186 381L120 447L127.071 454.071L134.142 461.142L200.142 395.142L193.071 388.071ZM191.999 138.141L199.07 131.07L135 67L127.929 74.0711L120.858 81.1421L184.928 145.212L191.999 138.141ZM307 60.9219L302.876 70.0319C303.482 70.3064 304.228 70.6587 305.105 71.0988L309.587 62.1592L314.068 53.2195C312.96 52.6641 311.977 52.1979 311.124 51.8118L307 60.9219ZM309.587 62.1592L305.105 71.0988C308.409 72.7547 313.18 75.4147 318.942 79.1339L324.365 70.7324L329.789 62.3308C323.481 58.2591 318.081 55.2313 314.068 53.2195L309.587 62.1592ZM324.365 70.7324L318.942 79.1339C330.469 86.5749 345.463 97.9329 360.275 113.341L367.484 106.411L374.694 99.4808C358.647 82.789 342.405 70.475 329.789 62.3308L324.365 70.7324ZM367.484 106.411L360.275 113.341C389.847 144.103 418 190.174 418 253.554H428H438C438 183.678 406.806 132.885 374.694 99.4808L367.484 106.411ZM428 253.554H418C418 386.007 341.18 436.548 306.891 436.922L307 446.922L307.109 456.921C356.084 456.387 438 392.822 438 253.554H428ZM307 446.922H317V60.9219H307H297V446.922H307ZM306.929 354L300.209 361.405L367.351 422.334L374.071 414.929L380.791 407.524L313.649 346.595L306.929 354Z" fill="url(#paint3_linear_0_1)"/>
</g>
<defs>
<filter id="filter0_i_0_1" x="81" y="45.4181" width="357" height="419.724" filterUnits="userSpaceOnUse" color-interpolation-filters="sRGB">
<feFlood flood-opacity="0" result="BackgroundImageFix"/>
<feBlend mode="normal" in="SourceGraphic" in2="BackgroundImageFix" result="shape"/>
<feColorMatrix in="SourceAlpha" type="matrix" values="0 0 0 0 0 0 0 0 0 0 0 0 0 0 0 0 0 0 127 0" result="hardAlpha"/>
<feOffset dy="4"/>
<feGaussianBlur stdDeviation="2"/>
<feComposite in2="hardAlpha" operator="arithmetic" k2="-1" k3="1"/>
<feColorMatrix type="matrix" values="0 0 0 0 1 0 0 0 0 1 0 0 0 0 1 0 0 0 0.31 0"/>
<feBlend mode="normal" in2="shape" result="effect1_innerShadow_0_1"/>
</filter>
<linearGradient id="paint0_linear_0_1" x1="254" y1="0" x2="254" y2="508" gradientUnits="userSpaceOnUse">
<stop stop-color="#2D3240"/>
<stop offset="0.980769" stop-color="#0F131F"/>
</linearGradient>
<linearGradient id="paint1_linear_0_1" x1="199" y1="61" x2="199" y2="447" gradientUnits="userSpaceOnUse">
<stop offset="0.173077" stop-color="#544A4A"/>
<stop offset="0.846154" stop-color="#1C162D"/>
</linearGradient>
<linearGradient id="paint2_linear_0_1" x1="364.5" y1="60.9219" x2="364.5" y2="446.922" gradientUnits="userSpaceOnUse">
<stop stop-color="#915347"/>
<stop offset="1" stop-color="#33270B"/>
</linearGradient>
<linearGradient id="paint3_linear_0_1" x1="283.646" y1="339.354" x2="366.646" y2="422.354" gradientUnits="userSpaceOnUse">
<stop stop-color="#D4A847"/>
<stop offset="0.716346" stop-color="#A18036"/>
</linearGradient>
</defs>
</svg>
