<svg width="357" height="411" viewBox="0 0 357 411" fill="none" xmlns="http://www.w3.org/2000/svg">
<path d="M141.5 10C145.021 10 189.687 30.6595 226 74.6045V348.703C199.086 380.786 165.921 396 141.5 396C93 396 10 336 10 203C10 69.5 135.5 9.99995 141.5 10Z" stroke="#D4A847" stroke-width="20" stroke-linejoin="round"/>
<line x1="31.9289" y1="311.929" x2="222.929" y2="120.929" stroke="#D4A847" stroke-width="20"/>
<path d="M225.929 303L36 113.071" stroke="#D4A847" stroke-width="20"/>
<line x1="162.536" y1="188.464" x2="223.536" y2="249.464" stroke="#D4A847" stroke-width="10"/>
<line x1="190.536" y1="162.464" x2="223.536" y2="195.464" stroke="#D4A847" stroke-width="10"/>
<line x1="112.071" y1="337.071" x2="46.0711" y2="403.071" stroke="#D4A847" stroke-width="20"/>
<line x1="110.999" y1="87.1413" x2="46.9289" y2="23.0711" stroke="#D4A847" stroke-width="20"/>
<path d="M226 9.92188C226.73 10.2521 227.594 10.6614 228.587 11.1592C232.245 12.993 237.331 15.8369 243.365 19.7324C255.437 27.525 271.055 39.361 286.484 55.4111C317.326 87.4942 347 135.926 347 202.554C347 338.414 267.632 395.467 226 395.922V9.92188Z" stroke="#D4A847" stroke-width="20" stroke-linejoin="bevel"/>
<line x1="210.071" y1="280.929" x2="293.071" y2="363.929" stroke="#D4A847" stroke-width="20"/>
</svg>
